HIERARCHY
ROOT Hips
{
	OFFSET 0.000000 0.000000 0.000000
	CHANNELS 6 Xposition Yposition Zposition Xrotation Yrotation Zrotation
	JOINT LeftUpLeg_virtual
	{
		OFFSET 0.000000 0.000000 0.000000
		CHANNELS 3 Xrotation Yrotation Zrotation
		JOINT LeftUpLeg
		{
			OFFSET 15.427100 -6.655098 0.678600
			CHANNELS 3 Xrotation Yrotation Zrotation
			JOINT LeftLeg
			{
				OFFSET 4.081073 -39.591068 13.024000
				CHANNELS 3 Xrotation Yrotation Zrotation
				JOINT LeftFoot
				{
					OFFSET -4.081074 -37.707932 -15.979700
					CHANNELS 3 Xrotation Yrotation Zrotation
					JOINT LeftToeBase
					{
						OFFSET 5.346399 -15.068900 20.645000
						CHANNELS 3 Xrotation Yrotation Zrotation
						JOINT LeftToe_End
						{
							OFFSET 2.754700 0.931300 11.300900
							CHANNELS 3 Xrotation Yrotation Zrotation
							End Site
							{
								OFFSET 0 0 0
							}
						}
					}
				}
			}
		}
	}
	JOINT RightUpLeg_virtual
	{
		OFFSET 0.000000 0.000000 0.000000
		CHANNELS 3 Xrotation Yrotation Zrotation
		JOINT RightUpLeg
		{
			OFFSET -15.569500 -6.655098 0.678600
			CHANNELS 3 Xrotation Yrotation Zrotation
			JOINT RightLeg
			{
				OFFSET -4.081825 -39.591045 13.023800
				CHANNELS 3 Xrotation Yrotation Zrotation
				JOINT RightFoot
				{
					OFFSET 4.081824 -37.707954 -15.979600
					CHANNELS 3 Xrotation Yrotation Zrotation
					JOINT RightToeBase
					{
						OFFSET -5.346400 -15.068900 20.645000
						CHANNELS 3 Xrotation Yrotation Zrotation
						JOINT RightToe_End
						{
							OFFSET -2.754700 0.931300 11.300900
							CHANNELS 3 Xrotation Yrotation Zrotation
							End Site
							{
								OFFSET 0 0 0
							}
						}
					}
				}
			}
		}
	}
	JOINT Spine_virtual
	{
		OFFSET 0.000000 0.000000 0.000000
		CHANNELS 3 Xrotation Yrotation Zrotation
		JOINT Spine
		{
			OFFSET -0.279200 12.230698 -2.892100
			CHANNELS 3 Xrotation Yrotation Zrotation
			JOINT Spine1
			{
				OFFSET -0.232667 10.192268 -1.242267
				CHANNELS 3 Xrotation Yrotation Zrotation
				JOINT Spine1_split
				{
					OFFSET -0.232667 10.192268 -1.242267
					CHANNELS 3 Xrotation Yrotation Zrotation
					JOINT Spine2
					{
						OFFSET -0.232667 10.192268 -1.242267
						CHANNELS 3 Xrotation Yrotation Zrotation
						JOINT Neck_virtual
						{
							OFFSET 0.000000 0.000000 0.000000
							CHANNELS 3 Xrotation Yrotation Zrotation
							JOINT Neck
							{
								OFFSET -0.418800 17.814194 8.416900
								CHANNELS 3 Xrotation Yrotation Zrotation
								JOINT Head
								{
									OFFSET 0.000000 7.031097 3.806800
									CHANNELS 3 Xrotation Yrotation Zrotation
									JOINT HeadTop_End
									{
										OFFSET 0.000000 24.646606 12.978600
										CHANNELS 3 Xrotation Yrotation Zrotation
										End Site
										{
											OFFSET 0 0 0
										}
									}
								}
							}
						}
						JOINT LeftShoulder_virtual
						{
							OFFSET 0.000000 0.000000 0.000000
							CHANNELS 3 Xrotation Yrotation Zrotation
							JOINT LeftShoulder
							{
								OFFSET 8.476499 7.247704 -3.868750
								CHANNELS 3 Xrotation Yrotation Zrotation
								JOINT LeftShoulder_split
								{
									OFFSET 8.476499 7.247704 -3.868750
									CHANNELS 3 Xrotation Yrotation Zrotation
									JOINT LeftArm
									{
										OFFSET 9.308998 -2.777710 0.208600
										CHANNELS 3 Xrotation Yrotation Zrotation
										JOINT LeftForeArm
										{
											OFFSET 29.972298 0.000000 0.000000
											CHANNELS 3 Xrotation Yrotation Zrotation
											JOINT LeftHand
											{
												OFFSET 26.026505 0.000000 0.000000
												CHANNELS 3 Xrotation Yrotation Zrotation
												End Site
												{
													OFFSET 0 0 0
												}
											}
										}
									}
								}
							}
						}
						JOINT RightShoulder_virtual
						{
							OFFSET 0.000000 0.000000 0.000000
							CHANNELS 3 Xrotation Yrotation Zrotation
							JOINT RightShoulder
							{
								OFFSET -7.570500 7.247704 -3.868750
								CHANNELS 3 Xrotation Yrotation Zrotation
								JOINT RightShoulder_split
								{
									OFFSET -7.570500 7.247704 -3.868750
									CHANNELS 3 Xrotation Yrotation Zrotation
									JOINT RightArm
									{
										OFFSET -9.308998 -2.777710 0.208500
										CHANNELS 3 Xrotation Yrotation Zrotation
										JOINT RightForeArm
										{
											OFFSET -29.972300 0.000000 0.000000
											CHANNELS 3 Xrotation Yrotation Zrotation
											JOINT RightHand
											{
												OFFSET -26.026505 0.000000 0.000000
												CHANNELS 3 Xrotation Yrotation Zrotation
												End Site
												{
													OFFSET 0 0 0
												}
											}
										}
									}
								}
							}
						}
					}
				}
			}
		}
	}
}
MOTION
Frames: 4
Frame Time: 0.03333333
3.954195 95.355240 -4.555099 0.000000 0.000000 0.000000 -0.533985 -0.909008 -2.369729 -31.855473 -3.074296 3.569500 46.982289 -0.042895 -0.784603 28.378060 -0.734107 12.136503 -13.688559 -1.246881 1.342161 0.000000 0.000000 0.000000 -0.787506 2.188671 -2.695619 -18.831955 -15.944098 6.469615 30.871974 5.988362 0.988264 15.952738 -2.148097 -6.297944 -19.235361 0.916248 3.397527 0.000000 0.000000 0.000000 -5.654069 3.910119 -1.319406 6.131219 1.330902 -0.487414 -2.284869 -0.816489 1.766503 0.019209 1.354339 -0.732912 0.000000 0.000000 0.000000 -2.884869 -0.183997 1.478384 -3.053340 -2.559680 1.883606 2.946251 2.740080 2.533055 0.000000 0.000000 0.000000 -2.366030 0.016305 1.822096 0.354150 2.934270 -1.227862 1.737792 -1.428463 0.276449 1.616760 3.003396 -71.870085 23.432246 -14.734467 1.227812 0.000000 0.000000 0.000000 -1.684938 -0.121948 1.648856 0.812955 4.599214 5.910236 -3.352760 0.661981 -1.891828 -6.936280 6.878389 78.236668 11.944212 19.386141 -3.535224 0.000000 0.000000 0.000000 
3.766184 95.653336 -1.938236 0.000000 0.000000 0.000000 -0.830206 -1.759907 -2.350616 -33.735284 -1.820123 3.299459 41.134845 0.699951 -0.929786 28.862423 -0.620494 13.846979 -13.237297 -1.278680 1.937449 0.000000 0.000000 0.000000 -0.075701 1.274343 -2.791720 -18.448643 -15.554400 6.299746 31.862846 6.439204 1.130849 17.599835 -1.740308 -6.856714 -21.150751 0.602071 3.677517 0.000000 0.000000 0.000000 -4.674771 3.305913 -1.973588 6.178524 1.546497 -0.236113 -2.252699 -0.775378 1.738513 0.190475 0.828618 -0.486919 0.000000 0.000000 0.000000 -2.816570 -0.175523 1.471688 -3.015636 -2.295764 1.352160 3.321751 2.711683 2.633776 0.000000 0.000000 0.000000 -2.600625 0.067906 1.796030 0.441269 3.363122 -1.427006 1.047502 -1.918491 -0.145582 1.787276 3.111260 -71.513911 23.542508 -15.449596 1.466539 0.000000 0.000000 0.000000 -1.819676 -0.099841 1.683533 0.768761 4.609334 5.454976 -2.879191 0.877853 -1.996842 -7.808247 7.356397 78.052813 12.034697 19.302290 -3.770893 0.000000 0.000000 0.000000 
3.778207 96.124123 1.277466 0.000000 0.000000 0.000000 -0.898066 -2.298104 -2.337080 -35.625519 -0.332891 2.421129 31.618267 1.371578 -0.261097 31.656199 -0.515285 12.906083 -14.021958 -1.228084 1.830818 0.000000 0.000000 0.000000 0.255836 0.053147 -2.783319 -16.837103 -15.539201 5.606651 32.890622 7.247312 1.298124 17.985544 -0.248184 -7.907340 -24.841405 0.483275 3.738140 0.000000 0.000000 0.000000 -3.453952 2.466560 -2.623603 6.374070 1.753544 0.415437 -2.264094 -0.692706 1.740328 0.661976 0.432639 -0.234374 0.000000 0.000000 0.000000 -2.758708 -0.156564 1.496361 -3.228644 -1.676822 0.393355 3.710060 2.732425 2.376767 0.000000 0.000000 0.000000 -2.854351 0.155468 1.761129 0.554825 4.421434 -2.261961 -0.101153 -2.623024 -0.641482 2.256276 3.609146 -71.564311 24.075534 -15.965840 1.956931 0.000000 0.000000 0.000000 -1.910574 -0.073359 1.638444 0.775744 4.543633 4.625918 -2.457472 1.027480 -1.783989 -9.069649 8.904130 77.346305 11.981645 19.149750 -3.849187 0.000000 0.000000 0.000000 
3.965834 96.366089 4.613941 0.000000 0.000000 0.000000 -0.832442 -2.606140 -2.205034 -37.469933 1.284431 1.420668 21.118091 1.631338 0.903654 37.115101 -0.681428 9.364200 -17.581629 -1.106637 1.609118 0.000000 0.000000 0.000000 0.299994 -1.317047 -2.661190 -14.069855 -15.995106 4.469780 33.050111 8.319864 1.566429 16.418376 1.859512 -9.443201 -28.507162 0.679230 3.602764 0.000000 0.000000 0.000000 -2.584629 1.641759 -3.175720 6.629656 1.881409 1.281452 -2.301277 -0.630569 1.803329 1.014220 0.199087 0.070770 0.000000 0.000000 0.000000 -2.735070 -0.172175 1.605152 -3.679732 -0.766271 -0.753786 4.050571 2.780892 1.841828 0.000000 0.000000 0.000000 -3.095974 0.213441 1.781023 0.713800 5.970519 -3.553496 -1.337526 -3.314499 -0.899226 3.134170 4.364617 -71.883397 24.821766 -16.020827 2.548782 0.000000 0.000000 0.000000 -2.008342 -0.107522 1.568664 0.844511 4.369791 3.481849 -2.119462 1.059425 -1.464812 -10.317719 10.895035 76.554318 11.771672 19.351079 -3.767670 0.000000 0.000000 0.000000 
